<svg width="40" height="40" viewBox="0 0 40 40" fill="none" xmlns="http://www.w3.org/2000/svg">
<g clip-path="url(#clip0_1095_2514)">
<path d="M21.2853 40.0002H18.7853C18.6728 39.9773 18.5613 39.9481 18.4478 39.9325C17.6249 39.8169 16.7936 39.7512 15.9822 39.5825C5.87385 37.4867 -1.01157 27.946 0.219685 17.719C0.874893 12.2731 3.37281 7.8127 7.6551 4.40958C12.2291 0.776243 17.4697 -0.550841 23.2291 0.329368C27.0447 0.91166 30.4051 2.54395 33.2801 5.12104C36.7239 8.20749 38.8791 12.0304 39.6905 16.5929C39.8197 17.3221 39.8988 18.0512 39.9968 18.7867V21.2867C39.9681 21.3853 39.9465 21.4859 39.9322 21.5877C39.6968 24.6679 38.8134 27.5512 37.2051 30.1867C34.0374 35.3783 29.4603 38.57 23.4707 39.6992C22.7509 39.8304 22.0155 39.896 21.2853 40.0002ZM16.9447 20.7346V32.2919H21.7624V20.719H24.9999C25.1395 19.3502 25.2759 18.0106 25.4166 16.6471H21.7541V14.4669C21.7541 13.4252 22.0509 13.1273 23.102 13.1273H25.3311C25.3426 12.9835 25.3572 12.8835 25.3572 12.7825C25.3572 11.5887 25.3572 10.395 25.3572 9.20124C25.2984 9.1798 25.2377 9.1641 25.1759 9.15437C23.9259 9.15437 22.6759 9.0877 21.4363 9.15958C18.903 9.30853 17.3864 10.6252 17.0395 13.021C16.8895 14.0554 16.9634 15.121 16.9353 16.1721C16.9353 16.321 16.9228 16.47 16.9145 16.6669H14.6801V20.7367L16.9447 20.7346Z" fill="white"/>
<path d="M16.9448 20.7344H14.6802V16.6667H16.9135C16.9218 16.4698 16.9302 16.3209 16.9343 16.1719C16.9635 15.1209 16.8896 14.0552 17.0385 13.0209C17.3854 10.625 18.9021 9.31045 21.4364 9.1667C22.6791 9.09482 23.9291 9.15732 25.176 9.16149C25.2378 9.17122 25.2985 9.18692 25.3573 9.20836C25.3573 10.4021 25.3573 11.5959 25.3573 12.7896C25.3573 12.8938 25.3427 12.9907 25.3312 13.1344H23.1021C22.051 13.1344 21.7552 13.4282 21.7541 14.474V16.6542H25.4166C25.2771 18.0229 25.1406 19.3573 25 20.7261H21.7625V32.2917H16.9448V20.7344Z" fill="#86A9C2"/>
</g>
<defs>
<clipPath id="clip0_1095_2514">
<rect width="40" height="40" fill="white"/>
</clipPath>
</defs>
</svg>
