<svg width="40" height="40" viewBox="0 0 40 40" fill="none" xmlns="http://www.w3.org/2000/svg">
<rect width="40" height="40" rx="20" fill="white"/>
<path fill-rule="evenodd" clip-rule="evenodd" d="M14.9998 10.938C13.9223 10.938 12.889 11.366 12.1271 12.1279C11.3653 12.8897 10.9373 13.923 10.9373 15.0005V25.0005C10.9373 26.0779 11.3653 27.1112 12.1271 27.8731C12.889 28.635 13.9223 29.063 14.9998 29.063H24.9998C26.0772 29.063 27.1105 28.635 27.8724 27.8731C28.6342 27.1112 29.0623 26.0779 29.0623 25.0005V15.0005C29.0623 13.923 28.6342 12.8897 27.8724 12.1279C27.1105 11.366 26.0772 10.938 24.9998 10.938H14.9998ZM10.8013 10.802C11.9148 9.68854 13.425 9.06299 14.9998 9.06299H24.9998C26.5745 9.06299 28.0847 9.68854 29.1982 10.802C30.3117 11.9155 30.9373 13.4258 30.9373 15.0005V25.0005C30.9373 26.5752 30.3117 28.0854 29.1982 29.1989C28.0847 30.3124 26.5745 30.938 24.9998 30.938H14.9998C13.425 30.938 11.9148 30.3124 10.8013 29.1989C9.68781 28.0854 9.06226 26.5752 9.06226 25.0005V15.0005C9.06226 13.4258 9.68781 11.9155 10.8013 10.802ZM16.6851 16.686C17.5642 15.8069 18.7565 15.3131 19.9997 15.3131C21.2429 15.3131 22.4352 15.8069 23.3143 16.686C24.1934 17.5651 24.6872 18.7574 24.6872 20.0006C24.6872 21.2438 24.1934 22.436 23.3143 23.3151C22.4352 24.1942 21.2429 24.6881 19.9997 24.6881C18.7565 24.6881 17.5642 24.1942 16.6851 23.3151C15.8061 22.436 15.3122 21.2438 15.3122 20.0006C15.3122 18.7574 15.8061 17.5651 16.6851 16.686ZM19.9997 17.1881C19.2538 17.1881 18.5384 17.4844 18.011 18.0118C17.4835 18.5393 17.1872 19.2546 17.1872 20.0006C17.1872 20.7465 17.4835 21.4619 18.011 21.9893C18.5384 22.5167 19.2538 22.8131 19.9997 22.8131C20.7456 22.8131 21.461 22.5167 21.9884 21.9893C22.5159 21.4619 22.8122 20.7465 22.8122 20.0006C22.8122 19.2546 22.5159 18.5393 21.9884 18.0118C21.461 17.4844 20.7456 17.1881 19.9997 17.1881ZM26.5622 14.3754C26.5622 13.8576 26.1424 13.4379 25.6247 13.4379C25.1069 13.4379 24.6872 13.8576 24.6872 14.3754V14.3879C24.6872 14.9057 25.1069 15.3254 25.6247 15.3254C26.1424 15.3254 26.5622 14.9057 26.5622 14.3879V14.3754Z" fill="#86A9C2"/>
</svg>
