<svg width="192" height="49" viewBox="0 0 192 49" fill="none" xmlns="http://www.w3.org/2000/svg">
<g clip-path="url(#clip0_657_815)">
<path d="M4.45665 23.6782C4.26034 22.5755 4.98439 21.6431 5.57076 20.6908C6.57014 19.0667 7.61032 17.4727 8.67344 15.8837C9.61605 14.3778 11.056 13.2356 12.7526 12.6482C15.8374 11.6081 18.5857 12.2421 20.9541 14.3675C21.6603 15.0015 22.1728 15.8712 22.7056 16.6557C23.8095 18.3148 24.9491 19.9589 25.923 21.6908C27.1417 23.8612 26.3284 26.7284 24.1919 28.0216C22.7745 28.8812 21.2499 29.1018 19.6412 28.4527C18.2775 27.8573 16.7991 27.559 15.3071 27.578C13.8237 27.6188 12.3624 27.9414 11.0036 28.5279C9.04566 29.385 6.11634 28.3624 5.10676 26.4401C4.57138 25.385 4.4541 24.9263 4.45665 23.6782Z" fill="white"/>
<path d="M8.17871 5.61058C8.33168 4.10682 8.92315 2.46271 10.6287 1.34993C13.0227 -0.203955 16.0055 0.803563 17.2573 3.44266C17.6976 4.30025 17.9122 5.25266 17.8815 6.21281C17.8507 7.17296 17.5757 8.11022 17.0814 8.9389C15.4421 11.7509 12.1074 12.1795 9.96078 10.1394C8.81097 9.04416 8.18126 7.55043 8.17871 5.61058Z" fill="white"/>
<path d="M18.4634 8.42009C18.6775 6.62811 19.2282 5.0642 20.8114 4.01157C23.3838 2.31232 26.4049 3.35493 27.2896 6.26721C27.9499 8.44766 26.8817 11.1444 24.8956 12.3073C24.315 12.6626 23.654 12.8711 22.9715 12.9143C22.289 12.9575 21.6062 12.834 20.984 12.5549C20.3619 12.2757 19.8196 11.8496 19.4056 11.3144C18.9916 10.7793 18.7187 10.1517 18.6112 9.48776C18.5526 9.11934 18.5118 8.74841 18.4634 8.42009Z" fill="white"/>
<path d="M8.54828 12.5379C8.54828 14.5655 6.45518 16.3399 3.82414 15.796C2.45764 15.5178 1.52964 14.603 0.828539 13.4477C-0.0688675 11.9639 0.0637039 9.65317 1.12428 8.28475C2.35056 6.70831 4.67311 6.43763 6.43478 7.67573C7.90327 8.70831 8.57377 10.1193 8.54828 12.5379Z" fill="white"/>
<path d="M28.2165 20.1995C25.7588 20.3248 24.1883 17.7985 24.5529 15.7885C24.9073 13.8211 25.9653 12.4602 27.8239 11.7409C29.2745 11.182 30.7073 11.3524 31.852 12.4376C32.3816 12.911 32.7668 13.5199 32.9645 14.1962C33.1622 14.8726 33.1645 15.5896 32.9712 16.2672C32.4843 18.2421 31.2911 19.5379 29.2872 20.0892C29.1663 20.1278 29.0415 20.1539 28.915 20.1669C28.683 20.1995 28.451 20.1995 28.2165 20.1995Z" fill="white"/>
</g>
<g clip-path="url(#clip1_657_815)">
<path d="M101.318 9.17711V8.29711C100.028 8.29711 98.7734 8.29711 97.5185 8.29711C96.7789 8.29711 96.3538 7.72568 96.7003 7.20282C96.816 7.07766 96.9559 6.97633 97.1118 6.90472C97.2678 6.8331 97.4367 6.79264 97.6088 6.78568C98.5987 6.7314 99.5946 6.76568 100.59 6.76282C100.826 6.76282 101.062 6.74282 101.327 6.7314V5.92854C100.343 5.92854 99.382 5.96282 98.4153 5.91139C98.245 5.9079 98.0771 5.87096 97.9216 5.80275C97.766 5.73454 97.626 5.63644 97.5098 5.51425C97.1574 4.99997 97.5418 4.45425 98.2581 4.43139C99.2481 4.39711 100.238 4.43139 101.205 4.43139C101.752 3.12854 102.052 2.89425 102.969 3.00282C103.249 3.00867 103.519 3.10816 103.733 3.28482C103.948 3.46148 104.094 3.70472 104.149 3.97425C104.198 4.08575 104.275 4.18375 104.372 4.25988C104.469 4.336 104.583 4.38799 104.705 4.41139C105.526 4.46282 106.353 4.42854 107.177 4.43711C107.689 4.43711 108.103 4.5914 108.088 5.19997C108.074 5.80854 107.704 5.92854 107.171 5.92854C106.396 5.92854 105.619 5.95425 104.842 5.92854C104.221 5.89997 104.061 6.13711 104.277 6.75425C105.398 6.75425 106.533 6.71997 107.663 6.77425C107.844 6.7781 108.023 6.81896 108.187 6.89422C108.352 6.96947 108.498 7.07749 108.618 7.2114C108.947 7.76854 108.557 8.28282 107.858 8.2914C106.673 8.3114 105.485 8.2914 104.242 8.2914V9.16854C105.258 9.16854 106.28 9.16854 107.276 9.16854C107.814 9.16854 108.251 9.23425 108.248 9.91139C108.245 10.5885 107.782 10.6514 107.261 10.6514C106.46 10.6514 105.66 10.6514 104.862 10.6514C104.128 10.6514 104.116 10.6771 104.28 11.5085C105.02 11.4851 105.758 11.4154 106.49 11.3C107.389 11.1057 108.181 11.3343 108.994 11.6285C109.736 11.9143 109.992 12.4428 109.623 13.1457C109.407 13.5037 109.172 13.85 108.918 14.1828C109.189 14.2 109.41 14.2228 109.628 14.2228C111.375 14.2228 113.122 14.2228 114.87 14.2228C116.325 14.2228 116.753 14.6571 116.756 16.1143C116.756 17.1085 116.774 18.1143 116.756 19.1028C116.733 20.2457 116.258 20.68 115.091 20.6828C113.422 20.6828 111.751 20.6828 110.007 20.6828C109.992 20.9685 109.978 21.22 109.96 21.54C110.252 21.5571 110.514 21.58 110.77 21.5828C112.855 21.5828 114.939 21.5828 117.024 21.5828C118.69 21.5828 119.062 21.9657 119.062 23.6028C119.062 24.1743 119.083 24.7457 119.062 25.3171C118.995 26.54 118.326 27.2943 117.094 27.5257C115.525 27.8114 114.066 27.3628 112.665 26.7457C112.525 26.6436 112.413 26.5077 112.342 26.351C112.27 26.1944 112.241 26.0223 112.258 25.8514C112.336 25.6085 112.814 25.3514 113.131 25.3457C113.879 25.3645 114.626 25.4246 115.367 25.5257C115.973 25.58 116.241 25.3171 116.273 24.7085C116.325 23.2971 116.343 23.2971 114.91 23.2971H109.969V25.5828C109.969 26.1543 109.987 26.7257 109.969 27.2971C109.917 28.36 109.419 28.84 108.464 28.7914C107.509 28.7428 107.089 28.2628 107.089 27.24C107.089 25.9628 107.089 24.6857 107.089 23.3143H102.369C100.85 23.3143 100.978 23.2057 100.972 24.7143C100.972 25.3085 100.972 25.9028 100.957 26.4943C100.916 27.3514 100.456 27.7771 99.6411 27.7828C98.7065 27.7828 98.2086 27.3743 98.1853 26.48C98.1503 25.3371 98.1445 24.1943 98.1853 23.0514C98.2231 22.02 98.7472 21.6228 100.008 21.5971C102.067 21.58 104.128 21.5971 106.19 21.5971H107.025V20.6885H104.134C103.359 20.6885 102.582 20.6885 101.805 20.6885C100.873 20.6714 100.369 20.1914 100.349 19.2771C100.331 18.1143 100.349 16.9514 100.349 15.7885C100.349 14.7314 100.791 14.2714 101.892 14.24C103.129 14.2028 104.364 14.24 105.601 14.24C106.839 14.24 106.871 14.2057 107.075 12.8943C105.948 13.0914 104.847 13.3371 103.732 13.4657C101.741 13.7085 99.7401 13.9028 97.7398 14.08C96.8663 14.1571 96.4761 13.7943 96.4295 13.0228C96.3829 12.2514 96.7731 11.9143 97.6583 11.88C98.6046 11.84 99.5451 11.7857 100.491 11.76C101.438 11.7343 101.441 11.7343 101.269 10.6628C100.203 10.6628 99.1141 10.6971 98.0339 10.6428C97.8687 10.6292 97.7086 10.5798 97.5651 10.4983C97.4217 10.4168 97.2984 10.3052 97.204 10.1714C96.9449 9.59997 97.2826 9.20282 97.9261 9.19425C99.0384 9.16568 100.148 9.17711 101.318 9.17711ZM113.926 18.2943H103.185C103.013 18.9371 103.22 19.1514 103.857 19.1514C107.004 19.1285 110.153 19.1285 113.303 19.1514C113.958 19.1543 114.089 18.8828 113.926 18.2943ZM103.185 16.5971C103.233 16.6242 103.285 16.6444 103.339 16.6571C106.731 16.6571 110.12 16.6743 113.513 16.6571C113.611 16.637 113.703 16.5938 113.781 16.5311C113.858 16.4683 113.919 16.3881 113.958 16.2971C114.034 15.8685 113.702 15.8057 113.355 15.8057C110.156 15.8057 106.958 15.8057 103.761 15.8057C103.147 15.8 103.019 16.0857 103.185 16.5971Z" fill="white"/>
<path d="M137.881 23.3086C137.881 24.7371 137.919 26.0686 137.881 27.3914C137.84 28.5343 136.899 29.08 135.799 28.6486C135.546 28.5598 135.332 28.3904 135.189 28.1676C135.047 27.9449 134.984 27.6816 135.013 27.42C135.013 26.0914 135.013 24.7657 135.013 23.3743C134.759 23.3486 134.553 23.3114 134.346 23.3114C132.82 23.3114 131.291 23.3343 129.766 23.3114C129.084 23.2943 128.866 23.5429 128.892 24.1686C128.93 24.9486 128.915 25.7343 128.892 26.5171C128.857 27.3486 128.365 27.7829 127.55 27.7771C126.644 27.7771 126.149 27.3714 126.123 26.5171C126.082 25.3543 126.077 24.1886 126.123 23.0286C126.164 22.0114 126.705 21.6 127.972 21.6C130.031 21.5829 132.092 21.6 134.154 21.6H134.969V20.6886H130.575C130.307 20.6886 130.039 20.6886 129.774 20.6886C128.793 20.6714 128.292 20.2029 128.278 19.26C128.263 18.1171 128.278 16.9743 128.278 15.8314C128.278 14.6886 128.712 14.2686 129.85 14.2371C131.061 14.2029 132.276 14.2371 133.487 14.2371C134.698 14.2371 134.73 14.2371 135.036 12.8829C134.186 13.0343 133.379 13.2143 132.561 13.3143C130.281 13.6 127.998 13.8514 125.713 14.08C124.819 14.1714 124.431 13.8371 124.359 13.0714C124.286 12.3057 124.682 11.9286 125.544 11.8857L129.221 11.72V10.6543H126.732C126.417 10.6543 126.103 10.6543 125.785 10.6543C125.264 10.6543 125.063 10.3686 125.078 9.87143C125.067 9.77591 125.079 9.67924 125.113 9.58901C125.146 9.49877 125.201 9.4174 125.272 9.35127C125.343 9.28514 125.429 9.23604 125.522 9.20782C125.616 9.17959 125.715 9.173 125.812 9.18857C126.924 9.18857 128.036 9.18857 129.236 9.18857C129.253 8.90286 129.268 8.66286 129.291 8.30857C127.99 8.30857 126.737 8.30857 125.488 8.30857C125.037 8.30857 124.658 8.21714 124.548 7.72C124.423 7.17143 124.734 6.8 125.421 6.77714C126.388 6.74286 127.361 6.77714 128.333 6.76H129.239V5.92857C128.278 5.92857 127.337 5.92857 126.397 5.92857C125.838 5.92857 125.349 5.85143 125.357 5.15428C125.366 4.45714 125.858 4.42 126.371 4.41429C127.314 4.41429 128.254 4.41429 129.175 4.41429C129.635 3.12 130.15 2.73143 131.146 3.04286C131.343 3.10985 131.522 3.21746 131.673 3.35843C131.824 3.49939 131.942 3.67043 132.019 3.86C132.156 4.36286 132.392 4.43143 132.829 4.43143C133.603 4.40857 134.378 4.43143 135.158 4.43143C135.682 4.43143 136.067 4.62 136.032 5.22C136.006 5.76286 135.656 5.94286 135.158 5.94C134.357 5.94 133.56 5.94 132.759 5.94C132.121 5.94 132.121 5.94 132.191 6.75714C133.333 6.75714 134.489 6.72286 135.639 6.77714C135.819 6.78503 135.995 6.83067 136.156 6.911C136.317 6.99132 136.458 7.10448 136.57 7.24286C136.879 7.81428 136.492 8.28571 135.775 8.29714C134.59 8.29714 133.408 8.29714 132.177 8.29714V9.17714C133.228 9.17714 134.238 9.17714 135.251 9.17714C135.758 9.17714 136.177 9.24 136.195 9.87428C136.212 10.5086 135.799 10.66 135.251 10.6571C134.238 10.6571 133.213 10.6571 132.171 10.6571V11.5143C133.126 11.4257 134.066 11.4029 134.981 11.2286C135.895 11.0543 136.605 11.5314 137.351 11.8486C137.843 12.06 137.852 12.5829 137.624 13.0286C137.399 13.4213 137.155 13.8027 136.891 14.1714C137.156 14.1714 137.386 14.2086 137.613 14.2086C139.383 14.2086 141.153 14.2086 142.921 14.2086C144.26 14.2086 144.7 14.6686 144.709 15.9829C144.709 17.0029 144.709 18.0229 144.709 19.0429C144.691 20.2229 144.222 20.6657 143.014 20.6686C141.349 20.6686 139.68 20.6686 137.965 20.6686V21.5771H139.188C141.151 21.5771 143.113 21.5771 145.079 21.5771C146.616 21.5771 147.018 21.9943 147.021 23.4829C147.021 24.0057 147.021 24.5286 147.021 25.0486C147 26.5543 146.264 27.4057 144.729 27.5714C143.273 27.7286 141.887 27.3343 140.592 26.7143C140.454 26.608 140.348 26.4688 140.282 26.31C140.216 26.1513 140.193 25.9785 140.216 25.8086C140.306 25.5657 140.798 25.3343 141.089 25.3286C141.837 25.3508 142.584 25.4099 143.326 25.5057C143.891 25.5514 144.167 25.3114 144.199 24.7314C144.278 23.2771 144.292 23.2771 142.807 23.2771L137.881 23.3086ZM131.111 18.2714C130.925 18.94 131.137 19.1543 131.772 19.1486C134.919 19.1257 138.07 19.1486 141.218 19.1486C141.954 19.1486 142.012 19.0543 141.8 18.2914L131.111 18.2714ZM131.111 16.6257C131.227 16.6492 131.345 16.6644 131.463 16.6714C134.759 16.6714 138.052 16.6714 141.349 16.6714C141.46 16.66 141.567 16.6217 141.66 16.5599C141.753 16.4981 141.829 16.4147 141.881 16.3171C141.978 15.9 141.648 15.8171 141.299 15.8171C138.096 15.8171 134.893 15.8171 131.69 15.8171C131.093 15.8 130.939 16.0657 131.117 16.6257H131.111Z" fill="white"/>
<path d="M88.8851 26.7686H80.4731C80.4556 26.9714 80.4352 27.1314 80.4294 27.2943C80.3945 28.3 79.9839 28.7543 79.0755 28.7857C78.1146 28.8171 77.5876 28.3086 77.5352 27.3C77.5352 27.2057 77.5352 27.1114 77.5352 27.0143C77.5352 23.1724 77.5352 19.3295 77.5352 15.4857C77.5352 14.2143 77.9981 13.7714 79.2822 13.7714H90.1139C91.3805 13.7714 91.7852 14.1629 91.7852 15.3771C91.7852 19.3143 91.7852 23.2524 91.7852 27.1914C91.7852 28.4257 90.8651 29.0771 89.7004 28.5914C89.351 28.4457 89.118 27.9743 88.9113 27.6029C88.7948 27.3857 88.8851 27.0714 88.8851 26.7686ZM86.0549 20.8429V24.94H88.8269V20.8429H86.0549ZM80.4789 20.8429V24.94H83.1723V20.8457L80.4789 20.8429ZM88.8735 19.0886C88.8735 18.02 88.8968 17.0057 88.8531 15.9943C88.8279 15.8797 88.7736 15.7732 88.6952 15.6848C88.6168 15.5964 88.5168 15.5289 88.4047 15.4886C87.7261 15.4425 87.045 15.4425 86.3665 15.4886C86.2848 15.5091 86.2098 15.5499 86.1486 15.6069C86.0875 15.6639 86.0422 15.7353 86.017 15.8143C85.9879 16.8971 85.9996 17.98 85.9996 19.1L88.8735 19.0886ZM83.1723 19.0886V15.4657C82.4007 15.4657 81.6786 15.44 80.9594 15.4829C80.7788 15.4829 80.4673 15.7229 80.4615 15.86C80.4207 16.9371 80.4382 18.0171 80.4382 19.0886H83.1723Z" fill="white"/>
<path d="M54.2673 16.4057C52.7445 16.4057 51.2915 16.4057 49.8415 16.4057C49.5766 16.407 49.3125 16.3763 49.0553 16.3143C48.505 16.1657 48.3856 15.7257 48.4293 15.2486C48.4341 15.1462 48.4604 15.046 48.5066 14.9541C48.5528 14.8622 48.6179 14.7807 48.6977 14.7147C48.7776 14.6487 48.8705 14.5996 48.9706 14.5705C49.0707 14.5415 49.1759 14.533 49.2795 14.5457C50.6364 14.5457 51.9932 14.5457 53.3559 14.5457H54.2673V7.32001C52.4475 7.32001 50.6596 7.32001 48.8748 7.32001C48.2371 7.32001 47.8469 7.09429 47.7887 6.46286C47.7304 5.83143 48.0798 5.47144 48.8777 5.47144C51.4225 5.47144 53.9674 5.47144 56.5122 5.47144H62.7113C63.6868 5.47144 64.0012 5.70858 63.9867 6.42001C63.9721 7.13144 63.6518 7.33144 62.7375 7.33144C61.0458 7.33144 59.357 7.33144 57.6158 7.33144V14.5H60.5042C61.1594 14.5 61.8145 14.4829 62.4667 14.5C63.2354 14.5229 63.5557 14.82 63.5499 15.4486C63.5441 16.0771 63.2034 16.3829 62.4435 16.3943C61.1361 16.4171 59.8229 16.3943 58.5184 16.3943H57.6012V24.9114C58.4107 24.9114 59.2056 24.9114 59.9976 24.9114C61.3545 24.9114 62.7142 24.8943 64.074 24.9114C64.9068 24.9314 65.1921 25.26 65.163 25.9972C65.1792 26.2135 65.1079 26.4274 64.9646 26.5926C64.8213 26.7578 64.6175 26.8611 64.3972 26.88C64.134 26.9176 63.8683 26.9367 63.6023 26.9372C58.5126 26.9372 53.4239 26.9372 48.3361 26.9372C47.119 26.9372 46.691 26.6514 46.6939 25.9029C46.6968 25.1543 47.1073 24.9 48.3506 24.9C50.3102 24.9 52.2669 24.9 54.2819 24.9L54.2673 16.4057Z" fill="white"/>
<path d="M163.799 10.7372C163.257 10.7372 162.846 10.7372 162.439 10.7372C161.807 10.7543 161.405 10.5029 161.37 9.85144C161.335 9.25715 161.661 8.96287 162.401 8.9543C163.927 8.94001 165.452 8.9543 166.981 8.9543C167.98 8.9543 167.98 8.9543 167.98 7.94287C167.98 6.78001 167.98 5.61715 167.98 4.4543C167.98 3.44572 168.431 3.02572 169.436 3.00858C170.44 2.99144 170.988 3.44858 170.996 4.43715C170.996 5.90287 170.996 7.37144 170.996 8.95144H173.425C174.272 8.95144 175.122 8.95144 175.97 8.95144C176.753 8.96858 177 9.20573 176.983 9.84573C176.965 10.4857 176.537 10.7314 175.926 10.7343H166.879C166.847 10.9235 166.826 11.1143 166.815 11.3057C166.815 15.3857 166.815 19.4667 166.815 23.5486C166.815 24.7314 167.054 25.0772 168.256 25.1372C170.446 25.2486 172.656 25.5029 174.782 24.6229C175.655 24.2629 176.238 24.56 176.599 25.38C176.96 26.2 176.776 26.9029 175.882 27.2343C175.065 27.5862 174.195 27.8025 173.305 27.8743C170.985 27.9453 168.662 27.9005 166.346 27.74C164.48 27.5972 163.834 26.7343 163.81 24.8229C163.781 22.5686 163.81 20.3143 163.81 18.06C163.81 15.9038 163.81 13.7457 163.81 11.5857L163.799 10.7372Z" fill="white"/>
<path d="M73.8456 22.64C73.7887 22.6094 73.7293 22.5836 73.668 22.5629C71.8714 22.3572 71.8714 22.3572 71.8452 24.08C71.8277 25.2229 71.2338 25.7314 70.1651 25.5086C69.9223 25.4784 69.6977 25.366 69.5303 25.1908C69.3628 25.0155 69.263 24.7884 69.2479 24.5486C69.2232 24.2893 69.2144 24.0289 69.2217 23.7686C69.2217 18.361 69.2217 12.9533 69.2217 7.54573C69.2217 6.04001 69.6148 5.65715 71.1551 5.6543C72.3431 5.6543 73.5311 5.6543 74.7162 5.6543C75.9013 5.6543 76.3963 6.13715 76.3963 7.31715C76.3963 12.6772 76.3963 18.0381 76.3963 23.4C76.3963 24.4514 76.041 24.8286 75.1355 24.8286C74.2911 24.8286 73.9067 24.4772 73.8601 23.6314C73.831 23.2857 73.8456 22.9343 73.8456 22.64ZM73.7378 20.8172C73.7722 20.7535 73.7995 20.6865 73.8194 20.6172C73.8194 16.4 73.8194 12.1829 73.8194 7.96573C73.8194 7.81144 73.7495 7.52858 73.6883 7.52287C73.1692 7.44167 72.6412 7.43014 72.1189 7.48858C71.9792 7.5143 71.8481 8.03715 71.8452 8.34573C71.8277 12.2543 71.8452 16.1629 71.8452 20.06C71.8452 20.3086 71.8714 20.5572 71.886 20.8172H73.7378Z" fill="white"/>
<path d="M158.43 15.9285C158.43 19.6771 158.43 23.4247 158.43 27.1714C158.43 28.4914 157.658 29.0771 156.417 28.6428C156.086 28.5257 155.835 28.1457 155.605 27.8371C155.521 27.6405 155.493 27.4253 155.524 27.2143C155.524 19.6219 155.524 12.0305 155.524 4.43998C155.524 3.40283 156.001 2.95141 157.032 2.96855C157.961 2.98569 158.415 3.40569 158.424 4.32855C158.444 5.91712 158.424 7.50569 158.424 9.09426L158.43 15.9285Z" fill="white"/>
<path d="M89.156 7.10857C89.8869 7.10857 90.5362 7.10857 91.1943 7.10857C92.0911 7.10857 92.3997 7.35714 92.3822 7.98856C92.3648 8.61999 92.0532 8.82285 91.2175 8.84571C90.5682 8.84571 89.9189 8.84571 89.1793 8.84571C89.1793 9.84856 89.2026 10.7886 89.1793 11.7286C89.1444 12.7743 88.4718 13.2457 87.4323 13.0314C86.7655 12.8971 86.4219 12.5257 86.4277 11.8486C86.4277 10.8829 86.4277 9.91428 86.4277 8.89714H82.9569C82.9569 9.84571 82.9744 10.7857 82.9569 11.7257C82.9307 12.82 82.1912 13.3229 81.1051 13.0514C80.3218 12.8571 80.185 12.2743 80.1646 11.6229C80.1413 10.7257 80.1646 9.82857 80.1646 8.83142C79.3406 8.83142 78.5748 8.83142 77.809 8.83142C77.2849 8.83142 76.8394 8.67999 76.7986 8.05142C76.7579 7.42285 77.1073 7.13428 77.7129 7.12285C78.5078 7.12285 79.3027 7.12285 80.1646 7.12285C80.1646 6.20285 80.1442 5.37714 80.1646 4.55142C80.1995 3.45714 80.6945 3.01714 81.7486 3.08285C82.5144 3.13142 82.9133 3.47999 82.9395 4.22571C82.9744 5.14285 82.9395 6.06571 82.9395 7.03999H86.3753C86.3753 6.18285 86.3753 5.34285 86.3753 4.50285C86.3753 3.47142 86.7713 3.07428 87.7322 3.07428C88.6931 3.07428 89.1153 3.47999 89.1444 4.48285C89.1764 5.31428 89.156 6.14285 89.156 7.10857Z" fill="white"/>
<path d="M115.059 6.7857H109.777C109.177 6.7857 108.781 6.55427 108.787 5.92855C108.793 5.30284 109.2 5.13998 109.759 5.14284C111.238 5.14284 112.718 5.14284 114.194 5.14284H114.831C115.123 4.42284 115.309 3.77141 115.664 3.22855C115.795 3.02284 116.328 2.99712 116.675 3.00855C117.586 3.03712 117.732 3.29427 117.938 5.14284C118.521 5.14284 119.103 5.14284 119.685 5.14284C120.268 5.14284 120.704 5.30569 120.69 5.96855C120.675 6.63141 120.25 6.7857 119.668 6.7857C119.085 6.7857 118.556 6.7857 117.868 6.7857V8.21427C117.868 9.21141 117.868 10.2143 117.868 11.2028C117.845 12.9171 116.704 14 114.98 13.7743C113.938 13.6486 112.924 13.28 111.908 12.9886C111.799 12.9682 111.696 12.9258 111.605 12.8641C111.514 12.8024 111.438 12.7227 111.38 12.6302C111.322 12.5377 111.284 12.4344 111.27 12.3269C111.255 12.2193 111.263 12.1099 111.294 12.0057C111.413 11.4686 111.853 11.4886 112.275 11.5257C112.968 11.6187 113.666 11.675 114.366 11.6943C114.604 11.6943 115.027 11.3514 115.035 11.1543C115.088 9.74284 115.059 8.30284 115.059 6.7857Z" fill="white"/>
<path d="M145.795 6.78569C145.795 8.21427 145.722 9.54284 145.81 10.86C145.961 13.1257 144.383 14.0943 142.397 13.7343C141.527 13.5473 140.669 13.3069 139.829 13.0143C139.721 12.9935 139.618 12.9509 139.527 12.8891C139.436 12.8273 139.36 12.7476 139.302 12.6552C139.244 12.5628 139.206 12.4597 139.191 12.3523C139.176 12.2449 139.184 12.1356 139.215 12.0314C139.334 11.4943 139.771 11.5143 140.193 11.5514C140.887 11.6443 141.586 11.7006 142.286 11.72C142.522 11.72 142.947 11.3771 142.956 11.18C143.011 9.75141 142.985 8.30569 142.985 6.78569H137.703C137.104 6.78569 136.708 6.55427 136.71 5.92855C136.713 5.30284 137.127 5.13998 137.686 5.14284C139.165 5.14284 140.641 5.14284 142.12 5.14284H142.752C143.043 4.42284 143.233 3.77141 143.588 3.22855C143.719 3.02284 144.252 2.99712 144.598 3.00855C145.51 3.03712 145.655 3.29427 145.859 5.14284C146.441 5.14284 147.024 5.14284 147.606 5.14284C148.189 5.14284 148.625 5.30569 148.611 5.96855C148.596 6.63141 148.177 6.78569 147.592 6.78569C147.006 6.78569 146.482 6.78569 145.795 6.78569Z" fill="white"/>
<path d="M40.625 25.4571C40.7997 25.0257 40.9162 24.6657 41.0851 24.3343C42.5409 21.5314 44.0288 18.74 45.4847 15.9343C45.7293 15.46 46.0059 15.1114 46.5941 15.3171C47.1822 15.5228 47.1764 15.9914 47.0279 16.4428C46.0525 19.56 45.1033 22.6885 44.055 25.7828C43.5746 27.2114 42.1711 27.4628 41.1578 26.4114C40.9389 26.1173 40.7598 25.7965 40.625 25.4571Z" fill="white"/>
<path d="M154.845 11.3629C154.845 12.8328 154.781 14.14 154.588 15.52C154.452 16.5172 153.794 16.9029 152.815 16.6857C151.982 16.5 151.575 15.8286 151.91 14.92C152.662 12.9186 153.14 10.8279 153.331 8.70287C153.328 8.60713 153.347 8.51202 153.385 8.42392C153.424 8.33583 153.481 8.25679 153.553 8.19212C153.625 8.12744 153.71 8.07862 153.803 8.04894C153.895 8.01925 153.994 8.00939 154.091 8.02001C154.626 8.02001 154.833 8.34573 154.845 8.79144C154.871 9.64858 154.845 10.5057 154.845 11.3629Z" fill="white"/>
<path d="M40.6407 9.07141C40.8898 9.12751 41.1319 9.20989 41.3628 9.31713C42.7314 10.2028 44.1319 11.0314 45.4393 12.0171C46.3128 12.6771 46.2604 13.6228 45.4567 14.3343C44.7143 14.9943 43.9572 14.8657 43.238 14C42.2888 12.8571 41.2901 11.7657 40.3641 10.6143C40.1614 10.3134 40.0699 9.95334 40.105 9.59427C40.1166 9.41141 40.4631 9.24284 40.6407 9.07141Z" fill="white"/>
<path d="M41.863 3.01141C42.1048 3.07574 42.339 3.1648 42.5619 3.27713C43.8488 4.13427 45.165 4.99141 46.3908 5.93141C47.2032 6.55998 47.1624 7.42856 46.4519 8.07999C45.7415 8.73141 44.967 8.65141 44.2798 7.8457C43.3393 6.73141 42.3813 5.64284 41.4816 4.49998C41.2946 4.21381 41.2249 3.8688 41.2865 3.53427C41.3215 3.3257 41.668 3.17713 41.863 3.01141Z" fill="white"/>
<path d="M161.92 13.2286C161.92 14.1286 161.588 14.5029 160.849 14.5886C160.039 14.6829 159.573 14.4143 159.463 13.7029C159.172 11.9314 158.936 10.1543 158.682 8.37715C158.624 7.96858 158.682 7.56287 159.175 7.49715C159.431 7.46287 159.873 7.56572 159.969 7.74572C160.872 9.47728 161.528 11.3221 161.92 13.2286Z" fill="white"/>
<path d="M113.021 11.1571C112.684 10.9834 112.362 10.7837 112.057 10.56C111.357 9.94164 110.691 9.28839 110.059 8.60285C109.856 8.37428 109.882 7.95142 109.8 7.61714C110.126 7.55714 110.528 7.34857 110.764 7.46571C111.733 7.93727 112.664 8.48176 113.548 9.09428C113.691 9.23587 113.799 9.40879 113.862 9.59896C113.925 9.78913 113.941 9.99115 113.909 10.1886C113.813 10.5429 113.376 10.8057 113.021 11.1571Z" fill="white"/>
<path d="M140.953 11.1514C140.616 10.9843 140.294 10.7883 139.992 10.5657C139.291 9.94836 138.624 9.29607 137.992 8.61143C137.788 8.38 137.805 7.96 137.721 7.62572C138.044 7.56286 138.449 7.34 138.679 7.46286C139.643 7.94509 140.577 8.4822 141.477 9.07143C141.864 9.32572 142.135 9.77714 141.838 10.2457C141.577 10.5782 141.28 10.8819 140.953 11.1514Z" fill="white"/>
</g>
<path d="M5.64697 46.5938C5.44906 46.5938 5.27718 46.526 5.13135 46.3906C4.99593 46.2448 4.92822 46.0729 4.92822 45.875V36.3125C4.92822 36.1146 4.99593 35.9427 5.13135 35.7969C5.27718 35.651 5.44906 35.5781 5.64697 35.5781H9.20947C10.1886 35.5781 10.9959 35.7448 11.6313 36.0781C12.2147 36.3906 12.6522 36.8021 12.9438 37.3125C13.2459 37.8125 13.397 38.3958 13.397 39.0625C13.397 39.6771 13.2616 40.2396 12.9907 40.75C12.7095 41.3021 12.2459 41.7396 11.6001 42.0625C10.9647 42.3854 10.1678 42.5469 9.20947 42.5469H6.38135V45.875C6.38135 46.0729 6.30843 46.2448 6.1626 46.3906C6.01676 46.526 5.84489 46.5938 5.64697 46.5938ZM9.06885 41.1719C10.0168 41.1719 10.7303 40.9948 11.2095 40.6406C11.6991 40.276 11.9438 39.75 11.9438 39.0625C11.9438 38.375 11.6991 37.8542 11.2095 37.5C10.7303 37.1354 10.0168 36.9531 9.06885 36.9531H6.56885C6.44385 36.9531 6.38135 37.0156 6.38135 37.1406V41.1719H9.06885ZM24.6276 46.6719C24.1797 46.6719 23.7578 46.5781 23.362 46.3906C22.9557 46.2031 22.638 45.9271 22.4088 45.5625C22.1797 45.1979 22.0651 44.7812 22.0651 44.3125C22.0651 43.5 22.3776 42.875 23.0026 42.4375C23.638 41.9896 24.5286 41.7656 25.6745 41.7656H27.5495V41.6562C27.5495 40.9896 27.3828 40.5052 27.0495 40.2031C26.7266 39.8906 26.2005 39.7344 25.4714 39.7344C25.0964 39.7344 24.7578 39.7656 24.4557 39.8281C24.1536 39.8802 23.7995 39.974 23.3932 40.1094L23.1901 40.1406C23.0338 40.1406 22.8932 40.0833 22.7682 39.9687C22.6536 39.8437 22.5963 39.6979 22.5963 39.5312C22.5963 39.2396 22.737 39.0365 23.0182 38.9219C23.8932 38.5469 24.7943 38.3594 25.7214 38.3594C26.4401 38.3594 27.0547 38.5052 27.5651 38.7969C28.0443 39.0781 28.4036 39.4531 28.6432 39.9219C28.8828 40.3802 29.0026 40.8906 29.0026 41.4531V45.875C29.0026 46.0729 28.9297 46.2448 28.7839 46.3906C28.638 46.526 28.4661 46.5938 28.2682 46.5938C28.0703 46.5938 27.8984 46.526 27.7526 46.3906C27.6172 46.2448 27.5495 46.0729 27.5495 45.875V45.5C26.7995 46.2812 25.8255 46.6719 24.6276 46.6719ZM25.1589 45.3906C25.6068 45.3906 26.0391 45.2865 26.4557 45.0781C26.8828 44.8594 27.2474 44.5781 27.5495 44.2344V42.9375H25.862C24.2995 42.9375 23.5182 43.3437 23.5182 44.1562C23.5182 44.9792 24.0651 45.3906 25.1589 45.3906ZM41.5926 46.5938C41.3843 46.5938 41.1916 46.5313 41.0145 46.4062C40.8478 46.2812 40.7332 46.1198 40.6707 45.9219L38.452 39.4219C38.4207 39.3281 38.4051 39.2396 38.4051 39.1562C38.4051 38.9583 38.4728 38.7917 38.6082 38.6562C38.7541 38.5104 38.9259 38.4375 39.1239 38.4375C39.2801 38.4375 39.4155 38.4792 39.5301 38.5625C39.6551 38.6354 39.7384 38.7396 39.7801 38.875L41.4832 44.4687C41.5145 44.5521 41.5509 44.5937 41.5926 44.5937C41.6343 44.5937 41.6707 44.5521 41.702 44.4687L43.3895 39.0156C43.4416 38.8385 43.5405 38.6979 43.6864 38.5937C43.8322 38.4896 43.9936 38.4375 44.1707 38.4375C44.3478 38.4375 44.5093 38.4896 44.6551 38.5937C44.8009 38.6979 44.8999 38.8385 44.952 39.0156L46.6395 44.4687C46.6707 44.5521 46.7072 44.5937 46.7489 44.5937C46.7905 44.5937 46.827 44.5521 46.8582 44.4687L48.5614 38.875C48.603 38.7396 48.6811 38.6354 48.7957 38.5625C48.9207 38.4792 49.0614 38.4375 49.2176 38.4375C49.4155 38.4375 49.5822 38.5104 49.7176 38.6562C49.8634 38.7917 49.9364 38.9583 49.9364 39.1562C49.9364 39.2396 49.9207 39.3281 49.8895 39.4219L47.6707 45.9219C47.6082 46.1198 47.4884 46.2812 47.3114 46.4062C47.1447 46.5313 46.9572 46.5938 46.7489 46.5938C46.5405 46.5938 46.3478 46.5313 46.1707 46.4062C46.0041 46.2812 45.8843 46.1146 45.8114 45.9062L44.2801 41.1406C44.2489 41.0573 44.2124 41.0156 44.1707 41.0156C44.1291 41.0156 44.0926 41.0573 44.0614 41.1406L42.5301 45.9062C42.4572 46.1146 42.3322 46.2812 42.1551 46.4062C41.9884 46.5313 41.8009 46.5938 41.5926 46.5938ZM60.7295 46.5938C60.5316 46.5938 60.3597 46.526 60.2139 46.3906C60.0784 46.2448 60.0107 46.0729 60.0107 45.875V39.7656H59.1045C58.9378 39.7656 58.792 39.7031 58.667 39.5781C58.542 39.4531 58.4795 39.3073 58.4795 39.1406C58.4795 38.9635 58.542 38.8177 58.667 38.7031C58.792 38.5781 58.9378 38.5156 59.1045 38.5156H60.0107V37.625C60.0107 36.9896 60.1253 36.474 60.3545 36.0781C60.5628 35.6927 60.8441 35.4062 61.1982 35.2187C61.5628 35.0208 61.9534 34.9219 62.3701 34.9219C62.8389 34.9219 63.292 35.026 63.7295 35.2344C63.9795 35.3802 64.1045 35.5677 64.1045 35.7969C64.1045 35.9531 64.042 36.0937 63.917 36.2187C63.8024 36.3437 63.667 36.4062 63.5107 36.4062C63.3961 36.4062 63.2764 36.3906 63.1514 36.3594L62.7295 36.3125C62.2711 36.3125 61.943 36.4167 61.7451 36.625C61.5576 36.8333 61.4639 37.1823 61.4639 37.6719V38.5156H63.4014C63.5784 38.5156 63.7243 38.5781 63.8389 38.7031C63.9639 38.8177 64.0264 38.9635 64.0264 39.1406C64.0264 39.3073 63.9639 39.4531 63.8389 39.5781C63.7243 39.7031 63.5784 39.7656 63.4014 39.7656H61.4639V45.875C61.4639 46.0729 61.3909 46.2448 61.2451 46.3906C61.0993 46.526 60.9274 46.5938 60.7295 46.5938ZM76.3507 46.6719C75.0695 46.6719 74.0695 46.3073 73.3507 45.5781C72.6424 44.849 72.2882 43.8281 72.2882 42.5156C72.2882 41.8073 72.4236 41.125 72.6945 40.4687C72.9757 39.8125 73.4028 39.2969 73.9757 38.9219C74.5486 38.5469 75.2361 38.3594 76.0382 38.3594C76.8091 38.3594 77.4809 38.5365 78.0539 38.8906C78.5955 39.2448 79.0174 39.724 79.3195 40.3281C79.6216 40.9219 79.7726 41.5833 79.7726 42.3125C79.7726 42.5104 79.7049 42.6823 79.5695 42.8281C79.4341 42.9635 79.257 43.0312 79.0382 43.0312H73.757C73.8507 43.7708 74.1268 44.3385 74.5851 44.7344C75.0539 45.1198 75.6841 45.3125 76.4757 45.3125C76.8924 45.3125 77.2622 45.276 77.5851 45.2031C77.9184 45.1198 78.2518 44.9948 78.5851 44.8281C78.658 44.7865 78.7518 44.7656 78.8664 44.7656C79.033 44.7656 79.1789 44.8281 79.3039 44.9531C79.4393 45.0677 79.507 45.2135 79.507 45.3906C79.507 45.6302 79.3664 45.8281 79.0851 45.9844C78.6476 46.224 78.2309 46.3958 77.8351 46.5C77.4393 46.6146 76.9445 46.6719 76.3507 46.6719ZM78.132 41.8437C78.2674 41.8437 78.3299 41.776 78.3195 41.6406C78.2778 41.224 78.1528 40.875 77.9445 40.5937C77.7153 40.2604 77.4289 40.0104 77.0851 39.8437C76.7518 39.6771 76.4028 39.5937 76.0382 39.5937C75.7049 39.5937 75.3559 39.6719 74.9914 39.8281C74.6268 40.0052 74.3351 40.2708 74.1164 40.625C73.908 40.9687 73.7882 41.375 73.757 41.8437H78.132ZM93.1595 46.6719C92.4199 46.6719 91.7272 46.5052 91.0814 46.1719C90.4251 45.8281 89.9095 45.3385 89.5345 44.7031C89.1595 44.0677 88.972 43.3385 88.972 42.5156C88.972 41.6719 89.1647 40.9323 89.5501 40.2969C89.9251 39.6823 90.4251 39.2083 91.0501 38.875C91.6855 38.5312 92.3887 38.3594 93.1595 38.3594C93.6803 38.3594 94.1387 38.4271 94.5345 38.5625C94.9303 38.6875 95.3262 38.8698 95.722 39.1094C95.9303 39.2552 96.0345 39.4427 96.0345 39.6719C96.0345 39.8281 95.972 39.974 95.847 40.1094C95.722 40.2448 95.5814 40.3125 95.4251 40.3125C95.3209 40.3125 95.2064 40.2812 95.0814 40.2187C94.7168 40.0312 94.4147 39.901 94.1751 39.8281C93.9355 39.7552 93.6387 39.7187 93.2845 39.7187C92.4095 39.7187 91.7116 39.974 91.1907 40.4844C90.6803 40.9844 90.4251 41.6615 90.4251 42.5156C90.4251 43.3698 90.6803 44.0521 91.1907 44.5625C91.7116 45.0625 92.4095 45.3125 93.2845 45.3125C93.6387 45.3125 93.9355 45.276 94.1751 45.2031C94.4147 45.1302 94.7168 45 95.0814 44.8125C95.2064 44.75 95.3209 44.7187 95.4251 44.7187C95.5814 44.7187 95.722 44.7865 95.847 44.9219C95.972 45.0573 96.0345 45.2031 96.0345 45.3594C96.0345 45.5885 95.9303 45.776 95.722 45.9219C95.3262 46.1615 94.9303 46.349 94.5345 46.4844C94.1387 46.6094 93.6803 46.6719 93.1595 46.6719ZM109.484 45.25C109.64 45.25 109.776 45.3073 109.89 45.4219C110.005 45.5365 110.062 45.6719 110.062 45.8281C110.062 46.0677 109.937 46.2552 109.687 46.3906C109.281 46.5781 108.848 46.6719 108.39 46.6719C106.859 46.6719 106.093 45.9792 106.093 44.5937V39.8437H105.312C105.114 39.8437 104.958 39.7917 104.843 39.6875C104.739 39.5729 104.687 39.4167 104.687 39.2187C104.687 39.0208 104.739 38.8698 104.843 38.7656C104.958 38.651 105.114 38.5937 105.312 38.5937H106.093V37.4844C106.093 37.2448 106.156 37.0625 106.281 36.9375C106.416 36.8125 106.598 36.75 106.828 36.75C107.057 36.75 107.234 36.8177 107.359 36.9531C107.484 37.0781 107.546 37.2552 107.546 37.4844V38.5937H109.296C109.473 38.5937 109.619 38.6562 109.734 38.7812C109.859 38.8958 109.921 39.0417 109.921 39.2187C109.921 39.3854 109.859 39.5312 109.734 39.6562C109.619 39.7812 109.473 39.8437 109.296 39.8437H107.546V44.4687C107.546 44.8333 107.63 45.0781 107.796 45.2031C107.963 45.3281 108.213 45.3906 108.546 45.3906C108.765 45.3906 108.973 45.3594 109.171 45.2969C109.192 45.2969 109.208 45.2917 109.218 45.2812C109.322 45.2604 109.411 45.25 109.484 45.25ZM124.543 46.6719C123.501 46.6719 122.569 46.4427 121.746 45.9844C120.902 45.526 120.241 44.8698 119.761 44.0156C119.293 43.1615 119.058 42.1719 119.058 41.0469C119.058 39.9115 119.298 38.9167 119.777 38.0625C120.246 37.2187 120.892 36.5677 121.714 36.1094C122.548 35.651 123.491 35.4219 124.543 35.4219C125.23 35.4219 125.85 35.5 126.402 35.6562C126.954 35.8125 127.522 36.0573 128.105 36.3906C128.345 36.5052 128.464 36.7083 128.464 37C128.464 37.1562 128.402 37.2969 128.277 37.4219C128.162 37.5469 128.011 37.6094 127.824 37.6094C127.709 37.6094 127.616 37.5885 127.543 37.5469C127.063 37.2969 126.605 37.1146 126.168 37C125.73 36.875 125.235 36.8125 124.683 36.8125C123.787 36.8125 123.032 36.9948 122.418 37.3594C121.803 37.724 121.329 38.224 120.996 38.8594C120.673 39.4844 120.511 40.2135 120.511 41.0469C120.511 41.8802 120.673 42.6042 120.996 43.2187C121.319 43.875 121.798 44.3854 122.433 44.75C123.069 45.1042 123.819 45.2812 124.683 45.2812C125.235 45.2812 125.73 45.224 126.168 45.1094C126.605 44.9844 127.063 44.7969 127.543 44.5469C127.616 44.5052 127.709 44.4844 127.824 44.4844C128.011 44.4844 128.162 44.5469 128.277 44.6719C128.402 44.7865 128.464 44.9271 128.464 45.0937C128.464 45.375 128.345 45.5781 128.105 45.7031C127.522 46.0365 126.954 46.2812 126.402 46.4375C125.85 46.5938 125.23 46.6719 124.543 46.6719ZM140.179 46.6719C139.732 46.6719 139.31 46.5781 138.914 46.3906C138.508 46.2031 138.19 45.9271 137.961 45.5625C137.732 45.1979 137.617 44.7812 137.617 44.3125C137.617 43.5 137.929 42.875 138.554 42.4375C139.19 41.9896 140.081 41.7656 141.226 41.7656H143.101V41.6562C143.101 40.9896 142.935 40.5052 142.601 40.2031C142.278 39.8906 141.752 39.7344 141.023 39.7344C140.648 39.7344 140.31 39.7656 140.008 39.8281C139.706 39.8802 139.351 39.974 138.945 40.1094L138.742 40.1406C138.586 40.1406 138.445 40.0833 138.32 39.9687C138.206 39.8437 138.148 39.6979 138.148 39.5312C138.148 39.2396 138.289 39.0365 138.57 38.9219C139.445 38.5469 140.346 38.3594 141.273 38.3594C141.992 38.3594 142.607 38.5052 143.117 38.7969C143.596 39.0781 143.956 39.4531 144.195 39.9219C144.435 40.3802 144.554 40.8906 144.554 41.4531V45.875C144.554 46.0729 144.482 46.2448 144.336 46.3906C144.19 46.526 144.018 46.5938 143.82 46.5938C143.622 46.5938 143.45 46.526 143.304 46.3906C143.169 46.2448 143.101 46.0729 143.101 45.875V45.5C142.351 46.2812 141.377 46.6719 140.179 46.6719ZM140.711 45.3906C141.159 45.3906 141.591 45.2865 142.008 45.0781C142.435 44.8594 142.799 44.5781 143.101 44.2344V42.9375H141.414C139.851 42.9375 139.07 43.3437 139.07 44.1562C139.07 44.9792 139.617 45.3906 140.711 45.3906ZM155.473 46.5938C155.275 46.5938 155.103 46.526 154.957 46.3906C154.822 46.2448 154.754 46.0729 154.754 45.875V39.1719C154.754 38.974 154.822 38.8021 154.957 38.6562C155.103 38.5104 155.275 38.4375 155.473 38.4375C155.671 38.4375 155.842 38.5104 155.988 38.6562C156.134 38.8021 156.207 38.974 156.207 39.1719V39.7969C156.926 38.8385 157.738 38.3594 158.644 38.3594H158.723C158.921 38.3594 159.087 38.4323 159.223 38.5781C159.358 38.7135 159.426 38.8802 159.426 39.0781C159.426 39.276 159.353 39.4427 159.207 39.5781C159.072 39.7031 158.9 39.7656 158.691 39.7656H158.613C158.124 39.7656 157.671 39.8854 157.254 40.125C156.848 40.3542 156.499 40.6875 156.207 41.125V45.875C156.207 46.0729 156.134 46.2448 155.988 46.3906C155.842 46.526 155.671 46.5938 155.473 46.5938ZM171.922 46.6719C170.641 46.6719 169.641 46.3073 168.922 45.5781C168.214 44.849 167.859 43.8281 167.859 42.5156C167.859 41.8073 167.995 41.125 168.266 40.4687C168.547 39.8125 168.974 39.2969 169.547 38.9219C170.12 38.5469 170.807 38.3594 171.609 38.3594C172.38 38.3594 173.052 38.5365 173.625 38.8906C174.167 39.2448 174.589 39.724 174.891 40.3281C175.193 40.9219 175.344 41.5833 175.344 42.3125C175.344 42.5104 175.276 42.6823 175.141 42.8281C175.005 42.9635 174.828 43.0312 174.609 43.0312H169.328C169.422 43.7708 169.698 44.3385 170.156 44.7344C170.625 45.1198 171.255 45.3125 172.047 45.3125C172.464 45.3125 172.833 45.276 173.156 45.2031C173.49 45.1198 173.823 44.9948 174.156 44.8281C174.229 44.7865 174.323 44.7656 174.438 44.7656C174.604 44.7656 174.75 44.8281 174.875 44.9531C175.011 45.0677 175.078 45.2135 175.078 45.3906C175.078 45.6302 174.938 45.8281 174.656 45.9844C174.219 46.224 173.802 46.3958 173.406 46.5C173.011 46.6146 172.516 46.6719 171.922 46.6719ZM173.703 41.8437C173.839 41.8437 173.901 41.776 173.891 41.6406C173.849 41.224 173.724 40.875 173.516 40.5937C173.287 40.2604 173 40.0104 172.656 39.8437C172.323 39.6771 171.974 39.5937 171.609 39.5937C171.276 39.5937 170.927 39.6719 170.563 39.8281C170.198 40.0052 169.906 40.2708 169.688 40.625C169.479 40.9687 169.359 41.375 169.328 41.8437H173.703Z" fill="white"/>
<defs>
<clipPath id="clip0_657_815">
<rect width="33.1429" height="28.5714" fill="white" transform="translate(0 0.400024)"/>
</clipPath>
<clipPath id="clip1_657_815">
<rect width="137.143" height="26.2857" fill="white" transform="translate(39.9995 2.78571)"/>
</clipPath>
</defs>
</svg>
