<svg width="40" height="40" viewBox="0 0 40 40" fill="none" xmlns="http://www.w3.org/2000/svg">
<g clip-path="url(#clip0_1095_2517)">
<path d="M40 20C40 8.9543 31.0457 0 20 0C8.9543 0 0 8.9543 0 20C0 31.0457 8.9543 40 20 40C31.0457 40 40 31.0457 40 20Z" fill="white"/>
<path d="M16.0002 10.0498H9.00024L17.2611 21.0118L9.45019 29.9545H12.1003L18.4885 22.6406L24.0003 29.9546H31.0002L22.392 18.5315L29.8004 10.0498H27.1503L21.1645 16.9028L16.0002 10.0498ZM25.0002 27.9641L13.0003 12.0403H15.0003L27.0002 27.9641H25.0002Z" fill="#86A9C2"/>
</g>
<defs>
<clipPath id="clip0_1095_2517">
<rect width="40" height="40" fill="white"/>
</clipPath>
</defs>
</svg>
